# xmcd CD database file
#
# Track frame offsets:
#	150
#	18620
#	34734
#	47350
#	64468
#	78714
#	94349
#	110694
#	130337
#	147024
#	165723
#	182456
#	210584
#
# Disc length: 3343 seconds
#
# Revision: 2
# Processed by: cddbd v1.5.2PL0 Copyright (c) Steve Scherf et al.
# Submitted via: CDex 1.70beta2
#
DISCID=b60d0d0d
DTITLE=Miley Cyrus - CAN'T BE TAMED
DYEAR=2010
DGENRE=Pop
TTITLE0=Liberty Walk
TTITLE1=Who Owns My Heart
TTITLE2=Can't Be Tamed
TTITLE3=Every Rose Has Its Thorn
TTITLE4=Two More Lonely People
TTITLE5=Forgiveness And Love
TTITLE6=Permanent December
TTITLE7=Stay
TTITLE8=Scars
TTITLE9=Take Me Along
TTITLE10=Robot
TTITLE11=My Heart Beats For Love
TTITLE12=CD-EXTRA
EXTD=YEAR: 2010
EXTT0=
EXTT1=
EXTT2=
EXTT3=
EXTT4=
EXTT5=
EXTT6=
EXTT7=
EXTT8=
EXTT9=
EXTT10=
EXTT11=
EXTT12=
PLAYORDER=
